<svg width="160" height="85" viewBox="0 0 160 85" fill="none" xmlns="http://www.w3.org/2000/svg">
<path fill-rule="evenodd" clip-rule="evenodd" d="M0 51.5C0 65.3071 11.1929 76.5 25 76.5C38.8071 76.5 50 65.3071 50 51.5H0Z" fill="#ED8309" fill-opacity="0.75"/>
<circle cx="35.5" cy="35.5" r="6.5" fill="#ED8309" fill-opacity="0.75" stroke="url(#paint0_radial_127_178)" stroke-width="2"/>
<path d="M27.6546 11.5C27.6546 15.0899 24.7444 18 21.1546 18C17.5647 18 14.6546 15.0899 14.6546 11.5C14.6546 7.91015 17.5647 5 21.1546 5C24.7444 5 27.6546 7.91015 27.6546 11.5Z" fill="#ED8309" fill-opacity="0.75" stroke="url(#paint1_radial_127_178)" stroke-width="2"/>
<circle cx="12.5" cy="34.5" r="11" fill="#ED8309" fill-opacity="0.75" stroke="url(#paint2_radial_127_178)" stroke-width="3"/>
<g filter="url(#filter0_d_127_178)">
<path d="M74.375 50.5C74.2708 51.8125 74.0625 53.1354 73.75 54.4688C73.4375 55.7812 73.0417 57.0521 72.5625 58.2812C72.1042 59.5104 71.5625 60.6562 70.9375 61.7188C70.3125 62.8021 69.6146 63.7396 68.8438 64.5312C68.0938 65.3229 67.2812 65.9479 66.4062 66.4062C65.5521 66.8646 64.6562 67.0938 63.7188 67.0938C63.5312 67.0938 63.2396 67.0521 62.8438 66.9688C62.4688 66.9062 62.0625 66.7396 61.625 66.4688C61.1875 66.2188 60.7396 65.8438 60.2812 65.3438C59.8438 64.8438 59.4583 64.1667 59.125 63.3125C58.7917 62.4792 58.5521 61.4375 58.4062 60.1875C58.2604 58.9375 58.2604 57.4271 58.4062 55.6562C58.6562 52.8646 59.1667 50.3333 59.9375 48.0625C60.7292 45.7708 61.625 43.8125 62.625 42.1875C63.6458 40.5625 64.6979 39.3125 65.7812 38.4375C66.8646 37.5417 67.8229 37.0938 68.6562 37.0938C68.9896 37.0938 69.2604 37.1667 69.4688 37.3125C69.6979 37.4375 69.875 37.6042 70 37.8125C70.1458 37.7708 70.3125 37.7396 70.5 37.7188C70.6875 37.6979 70.8958 37.6875 71.125 37.6875C71.7292 37.6875 72.2604 38 72.7188 38.625C73.1979 39.25 73.5833 40.125 73.875 41.25C74.1875 42.375 74.3854 43.7292 74.4688 45.3125C74.5729 46.875 74.5417 48.6042 74.375 50.5ZM63.8125 65.2812C64.625 65.2812 65.4583 64.8646 66.3125 64.0312C67.1667 63.1979 67.9583 62.0729 68.6875 60.6562C69.4167 59.2188 70.0417 57.5521 70.5625 55.6562C71.0833 53.7604 71.4375 51.75 71.625 49.625C71.6667 49.0625 71.6979 48.4167 71.7188 47.6875C71.7396 46.9583 71.7396 46.2188 71.7188 45.4688C71.6979 44.7188 71.6458 43.9792 71.5625 43.25C71.5 42.5 71.4062 41.8438 71.2812 41.2812C71.1562 40.7188 71 40.2604 70.8125 39.9062C70.625 39.5521 70.4062 39.375 70.1562 39.375C69.8854 39.3958 69.6146 39.4792 69.3438 39.625C69.1146 39.75 68.8438 39.9583 68.5312 40.25C68.2396 40.5208 67.9479 40.9062 67.6562 41.4062C67.5938 41.3646 67.5417 41.3021 67.5 41.2188C67.4792 41.1354 67.4479 41.0521 67.4062 40.9688C67.3646 40.8854 67.3333 40.7917 67.3125 40.6875C67.2708 40.625 67.25 40.5521 67.25 40.4688C67.25 40.3646 67.2396 40.25 67.2188 40.125C66.8021 40.5833 66.3021 41.2396 65.7188 42.0938C65.1562 42.9271 64.5833 43.9688 64 45.2188C63.4375 46.4688 62.9167 47.9479 62.4375 49.6562C61.9792 51.3438 61.6562 53.2708 61.4688 55.4375C61.3021 57.3542 61.2604 58.9479 61.3438 60.2188C61.4271 61.4896 61.5833 62.5 61.8125 63.25C62.0625 64 62.3646 64.5208 62.7188 64.8125C63.0729 65.125 63.4375 65.2812 63.8125 65.2812ZM74.9688 60.8438C74.8229 61.0729 74.6667 61.2188 74.5 61.2812C74.3125 61.3646 74.1562 61.375 74.0312 61.3125C73.8854 61.2708 73.7917 61.1667 73.75 61C73.7083 60.8333 73.75 60.625 73.875 60.375C73.9375 60.25 74.0833 59.9688 74.3125 59.5312C74.5208 59.0938 74.7812 58.5729 75.0938 57.9688C75.3854 57.3438 75.7083 56.6771 76.0625 55.9688C76.4167 55.2396 76.75 54.5521 77.0625 53.9062C77.3958 53.2604 77.6979 52.6875 77.9688 52.1875C78.2396 51.6667 78.4375 51.2917 78.5625 51.0625C78.3333 50.8542 78.1771 50.7083 78.0938 50.625C78.0104 50.5208 77.9479 50.3125 77.9062 50C77.8646 49.7292 77.9271 49.375 78.0938 48.9375C78.2604 48.5 78.4792 48.0833 78.75 47.6875C79.0208 47.2708 79.3229 46.9167 79.6562 46.625C79.9896 46.3333 80.3125 46.1875 80.625 46.1875C81.2083 46.1875 81.6146 46.375 81.8438 46.75C82.0938 47.125 82.2396 47.5104 82.2812 47.9062C82.3229 48.1771 82.3021 48.5208 82.2188 48.9375C82.1354 49.3542 81.9792 49.7292 81.75 50.0625C81.8125 50.1042 81.8958 50.1562 82 50.2188C82.1042 50.2604 82.2708 50.2812 82.5 50.2812C82.8333 50.2812 83.0625 50.2604 83.1875 50.2188C83.3333 50.1771 83.5521 50.1562 83.8438 50.1562C84.1979 50.1562 84.4896 50.25 84.7188 50.4375C84.9479 50.6042 85.1354 50.8229 85.2812 51.0938C85.4271 51.3438 85.5312 51.625 85.5938 51.9375C85.6771 52.2292 85.7292 52.5 85.75 52.75C85.8125 53.2708 85.6771 53.8125 85.3438 54.375C85.0104 54.9375 84.6042 55.5521 84.125 56.2188C83.8333 56.6354 83.5417 57.1042 83.25 57.625C82.9583 58.1458 82.8333 58.6146 82.875 59.0312C82.9167 59.3021 82.9896 59.5208 83.0938 59.6875C83.1979 59.8542 83.4896 59.9375 83.9688 59.9375C84.3229 59.9375 84.7083 59.8125 85.125 59.5625C85.5625 59.2917 86 58.9583 86.4375 58.5625C86.8958 58.1458 87.3438 57.6979 87.7812 57.2188C88.2188 56.7188 88.625 56.2396 89 55.7812C89.375 55.3021 89.6875 54.875 89.9375 54.5C90.2083 54.125 90.4062 53.8542 90.5312 53.6875C90.6354 53.5208 90.7708 53.4062 90.9375 53.3438C91.1042 53.2812 91.25 53.2812 91.375 53.3438C91.5 53.4062 91.5729 53.5312 91.5938 53.7188C91.6354 53.9062 91.5625 54.1562 91.375 54.4688C91.25 54.6771 91.0312 55.0104 90.7188 55.4688C90.4271 55.9271 90.0625 56.4375 89.625 57C89.2083 57.5625 88.7396 58.1458 88.2188 58.75C87.6979 59.3333 87.1458 59.875 86.5625 60.375C86 60.8542 85.4271 61.25 84.8438 61.5625C84.2812 61.875 83.7396 62.0312 83.2188 62.0312C82.6771 62.0312 82.2292 61.9271 81.875 61.7188C81.5208 61.5104 81.2292 61.2604 81 60.9688C80.7917 60.6562 80.6354 60.3229 80.5312 59.9688C80.4479 59.5938 80.4167 59.25 80.4375 58.9375C80.4583 58.6875 80.5208 58.4271 80.625 58.1562C80.75 57.8646 80.8854 57.5729 81.0312 57.2812C81.1979 56.9688 81.3646 56.6667 81.5312 56.375C81.7188 56.0625 81.8854 55.7604 82.0312 55.4688C82.3854 54.8646 82.6667 54.3542 82.875 53.9375C83.1042 53.5 83.2188 53.1354 83.2188 52.8438C83.2188 52.6562 83.1771 52.4896 83.0938 52.3438C83.0104 52.1979 82.875 52.125 82.6875 52.125C82.5625 52.125 82.4688 52.1354 82.4062 52.1562C82.3646 52.1562 82.3125 52.1562 82.25 52.1562C82.2083 52.1562 82.1354 52.1667 82.0312 52.1875C81.9479 52.1875 81.8125 52.1875 81.625 52.1875C81.3542 52.1875 81.125 52.1458 80.9375 52.0625C80.75 51.9792 80.5729 51.9167 80.4062 51.875C80.3229 52.0208 80.1354 52.3333 79.8438 52.8125C79.5521 53.2917 79.2083 53.8542 78.8125 54.5C78.4375 55.1458 78.0312 55.8229 77.5938 56.5312C77.1771 57.2396 76.7812 57.9062 76.4062 58.5312C76.0312 59.1354 75.7188 59.6562 75.4688 60.0938C75.1979 60.5104 75.0312 60.7604 74.9688 60.8438ZM97.4062 65.4688C97.3021 65.9688 97.1667 66.5938 97 67.3438C96.8542 68.0938 96.6771 68.8854 96.4688 69.7188C96.2812 70.5521 96.0521 71.375 95.7812 72.1875C95.5312 73.0208 95.25 73.7604 94.9375 74.4062C94.625 75.0729 94.2812 75.6146 93.9062 76.0312C93.5312 76.4479 93.1146 76.6562 92.6562 76.6562C91.9688 76.6562 91.375 76.4479 90.875 76.0312C90.3958 75.6354 89.9896 75.125 89.6562 74.5C89.3229 73.8958 89.0833 73.2396 88.9375 72.5312C88.7708 71.8229 88.6875 71.1667 88.6875 70.5625C88.6875 69.7292 88.7604 69.0312 88.9062 68.4688C89.0521 67.9271 89.3021 67.4062 89.6562 66.9062C90.0312 66.4062 90.5312 65.875 91.1562 65.3125C91.7812 64.75 92.5833 64.0521 93.5625 63.2188C94.0417 62.8021 94.5 62.4062 94.9375 62.0312C95.375 61.6562 95.7917 61.3125 96.1875 61C96.2917 60.5833 96.3854 60.1979 96.4688 59.8438C96.5729 59.4688 96.6562 59.1354 96.7188 58.8438C96.1771 59.5729 95.5208 60.1875 94.75 60.6875C94 61.1875 93.1354 61.4375 92.1562 61.4375C91.2604 61.4375 90.5312 61.0417 89.9688 60.25C89.4271 59.4375 89.1562 58.25 89.1562 56.6875C89.1562 55.9167 89.3021 55.0312 89.5938 54.0312C89.8854 53.0312 90.3021 52.0938 90.8438 51.2188C91.3854 50.3438 92.0521 49.6042 92.8438 49C93.6354 48.3958 94.5208 48.0938 95.5 48.0938C95.9583 48.0938 96.3542 48.2083 96.6875 48.4375C97.0208 48.6667 97.3021 48.9583 97.5312 49.3125C97.7604 49.6458 97.9375 50.0104 98.0625 50.4062C98.1875 50.7812 98.2812 51.1354 98.3438 51.4688C98.3854 51.3438 98.4167 51.2188 98.4375 51.0938C98.4583 50.9479 98.4896 50.8229 98.5312 50.7188C98.7396 50.0104 98.9688 49.5312 99.2188 49.2812C99.4896 49.0104 99.8854 48.875 100.406 48.875C100.698 48.875 100.938 48.9271 101.125 49.0312C101.333 49.1354 101.438 49.2292 101.438 49.3125C101.333 49.5417 101.25 49.7188 101.188 49.8438C101.125 49.9688 101.062 50.1042 101 50.25C100.938 50.375 100.875 50.5417 100.812 50.75C100.75 50.9583 100.667 51.2604 100.562 51.6562C100.521 51.8021 100.438 52.1458 100.312 52.6875C100.208 53.2083 100.062 53.8333 99.875 54.5625C99.7083 55.2917 99.5208 56.0938 99.3125 56.9688C99.125 57.8438 98.9375 58.6979 98.75 59.5312C99.3333 59.1979 99.9375 58.7917 100.562 58.3125C101.188 57.8333 101.781 57.3438 102.344 56.8438C102.906 56.3438 103.406 55.875 103.844 55.4375C104.281 54.9792 104.604 54.6042 104.812 54.3125C104.979 54.0625 105.167 53.8854 105.375 53.7812C105.583 53.6771 105.76 53.6458 105.906 53.6875C106.073 53.7083 106.167 53.8021 106.188 53.9688C106.229 54.1146 106.167 54.3229 106 54.5938C105.521 55.3646 104.938 56.1146 104.25 56.8438C103.562 57.5521 102.854 58.2188 102.125 58.8438C101.417 59.4479 100.719 59.9896 100.031 60.4688C99.3646 60.9271 98.7917 61.3021 98.3125 61.5938C98.1042 62.5312 97.9271 63.2917 97.7812 63.875C97.6354 64.4583 97.5104 64.9896 97.4062 65.4688ZM93.4688 59.3125C93.9062 59.3125 94.3125 59.1979 94.6875 58.9688C95.0833 58.7396 95.4375 58.4792 95.75 58.1875C96.0625 57.875 96.3229 57.5625 96.5312 57.25C96.7396 56.9375 96.8958 56.6875 97 56.5C97.0833 56.3125 97.1771 56.0625 97.2812 55.75C97.4062 55.4375 97.5 55.1354 97.5625 54.8438C97.625 54.5521 97.6458 54.2917 97.625 54.0625C97.625 53.8333 97.5521 53.7083 97.4062 53.6875C97.2812 53.6667 97.1771 53.5833 97.0938 53.4375C97.0312 53.2917 96.9792 53.125 96.9375 52.9375C96.8958 52.75 96.8646 52.5625 96.8438 52.375C96.8438 52.1875 96.8333 52.0208 96.8125 51.875C96.7083 51.1458 96.5312 50.6146 96.2812 50.2812C96.0312 49.9479 95.75 49.7812 95.4375 49.7812C94.9167 49.7812 94.4167 49.9896 93.9375 50.4062C93.4792 50.8229 93.0625 51.3646 92.6875 52.0312C92.3333 52.6771 92.0521 53.3958 91.8438 54.1875C91.6354 54.9583 91.5312 55.6979 91.5312 56.4062C91.5312 57.2812 91.6562 57.9896 91.9062 58.5312C92.1562 59.0521 92.6771 59.3125 93.4688 59.3125ZM92.0312 73.8125C92.4479 73.8125 92.7812 73.5 93.0312 72.875C93.3021 72.2708 93.5833 71.4375 93.875 70.375C93.9375 70.125 94.0208 69.7604 94.125 69.2812C94.25 68.8229 94.3854 68.2917 94.5312 67.6875C94.6979 67.0833 94.8646 66.4271 95.0312 65.7188C95.1979 65.0312 95.375 64.3333 95.5625 63.625C95.3958 63.7708 95.2188 63.9167 95.0312 64.0625C94.8646 64.2292 94.6875 64.4167 94.5 64.625C94.0417 65.0625 93.5938 65.4792 93.1562 65.875C92.7396 66.2917 92.3646 66.7188 92.0312 67.1562C91.6979 67.6146 91.4271 68.1042 91.2188 68.625C91.0312 69.1458 90.9375 69.75 90.9375 70.4375C90.9375 71.125 90.9583 71.6875 91 72.125C91.0625 72.5625 91.1354 72.9062 91.2188 73.1562C91.3229 73.4062 91.4375 73.5729 91.5625 73.6562C91.7083 73.7604 91.8646 73.8125 92.0312 73.8125ZM119.906 54.7812C119.615 55.1979 119.24 55.7188 118.781 56.3438C118.323 56.9479 117.844 57.5625 117.344 58.1875C116.865 58.7917 116.385 59.3542 115.906 59.875C115.448 60.375 115.062 60.7292 114.75 60.9375C114.542 61.0625 114.302 61.1667 114.031 61.25C113.76 61.3333 113.479 61.3854 113.188 61.4062C112.917 61.4271 112.656 61.4062 112.406 61.3438C112.156 61.3021 111.938 61.2188 111.75 61.0938C111.562 60.9479 111.406 60.7396 111.281 60.4688C111.177 60.2396 111.073 59.9375 110.969 59.5625C110.885 59.1875 110.854 58.7188 110.875 58.1562C110.375 58.9896 109.823 59.6354 109.219 60.0938C108.615 60.5312 108.042 60.8542 107.5 61.0625C106.875 61.2917 106.25 61.4271 105.625 61.4688C105.333 61.4688 105.021 61.3646 104.688 61.1562C104.354 60.9688 104.073 60.6667 103.844 60.25C103.615 59.8125 103.469 59.2604 103.406 58.5938C103.344 57.9062 103.427 57.0938 103.656 56.1562C103.948 54.8854 104.406 53.7292 105.031 52.6875C105.677 51.6458 106.375 50.7604 107.125 50.0312C107.875 49.2812 108.615 48.7188 109.344 48.3438C110.073 47.9688 110.677 47.8021 111.156 47.8438C111.719 47.9479 112.177 48.1146 112.531 48.3438C112.823 48.5521 113.01 48.8646 113.094 49.2812C113.198 49.6771 113.031 50.2083 112.594 50.875C112.885 50.8125 113.125 50.7708 113.312 50.75C113.521 50.7292 113.677 50.7188 113.781 50.7188C113.906 50.7188 113.99 50.7292 114.031 50.75C114.052 50.7917 114.062 50.8854 114.062 51.0312C114.062 51.1562 114.031 51.3958 113.969 51.75C113.906 52.1042 113.812 52.5833 113.688 53.1875C113.562 53.7917 113.396 54.5729 113.188 55.5312C113.146 55.7188 113.104 55.8958 113.062 56.0625C113.042 56.2083 113.01 56.3646 112.969 56.5312C112.948 56.6771 112.917 56.8542 112.875 57.0625C112.833 57.2708 112.781 57.5312 112.719 57.8438C112.698 58.0312 112.688 58.2396 112.688 58.4688C112.708 58.6771 112.75 58.875 112.812 59.0625C112.875 59.25 112.969 59.4062 113.094 59.5312C113.24 59.6354 113.438 59.6875 113.688 59.6875C113.896 59.6875 114.167 59.5625 114.5 59.3125C114.833 59.0417 115.188 58.7083 115.562 58.3125C115.938 57.8958 116.323 57.4479 116.719 56.9688C117.135 56.4688 117.521 55.9896 117.875 55.5312C118.229 55.0729 118.542 54.6667 118.812 54.3125C119.104 53.9583 119.312 53.6979 119.438 53.5312C119.604 53.3438 119.771 53.2396 119.938 53.2188C120.104 53.1771 120.229 53.2188 120.312 53.3438C120.396 53.4688 120.406 53.6562 120.344 53.9062C120.302 54.1562 120.156 54.4479 119.906 54.7812ZM110.75 56.1562C110.854 55.7396 110.979 55.25 111.125 54.6875C111.271 54.125 111.396 53.5833 111.5 53.0625C111.604 52.5417 111.677 52.1146 111.719 51.7812C111.781 51.4271 111.771 51.2604 111.688 51.2812C111.583 51.3021 111.469 51.3333 111.344 51.375C111.24 51.4167 111.104 51.4479 110.938 51.4688C110.771 51.4896 110.604 51.5208 110.438 51.5625C110.604 51.2292 110.698 50.9583 110.719 50.75C110.76 50.5208 110.771 50.3438 110.75 50.2188C110.729 50.0729 110.688 49.9583 110.625 49.875C110.396 49.6875 109.99 49.8438 109.406 50.3438C108.844 50.8229 108.188 51.7188 107.438 53.0312C107.125 53.5729 106.875 54.1562 106.688 54.7812C106.5 55.3854 106.365 55.9583 106.281 56.5C106.219 57.0417 106.208 57.5208 106.25 57.9375C106.292 58.3333 106.375 58.5938 106.5 58.7188C106.729 58.9479 106.99 59.0625 107.281 59.0625C107.573 59.0417 107.865 58.9583 108.156 58.8125C108.469 58.6458 108.771 58.4375 109.062 58.1875C109.375 57.9375 109.646 57.6771 109.875 57.4062C110.125 57.1354 110.323 56.8854 110.469 56.6562C110.635 56.4271 110.729 56.2604 110.75 56.1562ZM127.094 61.7812C126.615 61.7812 126.198 61.6875 125.844 61.5C125.51 61.3333 125.24 61.1042 125.031 60.8125C124.823 60.5208 124.688 60.1875 124.625 59.8125C124.562 59.4167 124.583 59 124.688 58.5625C124.75 58.2708 124.854 57.8854 125 57.4062C125.146 56.9062 125.292 56.375 125.438 55.8125C125.604 55.2292 125.75 54.6562 125.875 54.0938C126.021 53.5104 126.115 52.9896 126.156 52.5312C126.198 52.0521 126.177 51.6667 126.094 51.375C126.01 51.0625 125.833 50.9062 125.562 50.9062C125.229 50.9062 124.885 51.0208 124.531 51.25C124.177 51.4583 123.812 51.75 123.438 52.125C123.083 52.5 122.719 52.9375 122.344 53.4375C121.99 53.9167 121.635 54.4167 121.281 54.9375C121.094 55.6458 120.938 56.2708 120.812 56.8125C120.688 57.3333 120.573 57.8125 120.469 58.25C120.385 58.6667 120.302 59.0417 120.219 59.375C120.135 59.6875 120.062 59.9896 120 60.2812C119.938 60.4896 119.75 60.6979 119.438 60.9062C119.125 61.0938 118.792 61.25 118.438 61.375C118.083 61.5 117.781 61.5625 117.531 61.5625C117.26 61.5625 117.146 61.4688 117.188 61.2812C117.208 61.1562 117.281 60.875 117.406 60.4375C117.51 60 117.646 59.4896 117.812 58.9062C117.958 58.3021 118.115 57.6667 118.281 57C118.448 56.3333 118.604 55.6979 118.75 55.0938C118.854 54.6146 118.969 54.0833 119.094 53.5C119.198 53 119.323 52.4167 119.469 51.75C119.635 51.0833 119.823 50.3542 120.031 49.5625C120.177 49.4375 120.323 49.3438 120.469 49.2812C120.635 49.1979 120.802 49.1354 120.969 49.0938C121.135 49.0312 121.312 48.9896 121.5 48.9688C121.667 48.9688 121.833 48.9792 122 49C122.146 49.0208 122.292 49.0625 122.438 49.125C122.604 49.1667 122.75 49.2396 122.875 49.3438C122.812 49.4896 122.74 49.6979 122.656 49.9688C122.573 50.2188 122.49 50.4896 122.406 50.7812C122.323 51.1146 122.219 51.4583 122.094 51.8125C122.365 51.4375 122.667 51.0625 123 50.6875C123.354 50.2917 123.729 49.9375 124.125 49.625C124.542 49.3125 124.979 49.0625 125.438 48.875C125.896 48.6667 126.365 48.5625 126.844 48.5625C127.24 48.5625 127.594 48.6771 127.906 48.9062C128.219 49.1354 128.458 49.4583 128.625 49.875C128.812 50.2708 128.917 50.75 128.938 51.3125C128.979 51.875 128.906 52.4896 128.719 53.1562L128.375 54.5312C128.271 54.9688 128.135 55.4896 127.969 56.0938C127.823 56.6771 127.635 57.3229 127.406 58.0312C127.281 58.4896 127.229 58.8854 127.25 59.2188C127.292 59.5521 127.5 59.7188 127.875 59.7188C128.25 59.7188 128.719 59.4896 129.281 59.0312C129.865 58.5729 130.448 58.0208 131.031 57.375C131.615 56.7292 132.167 56.0729 132.688 55.4062C133.208 54.7188 133.604 54.1667 133.875 53.75C134.062 53.4792 134.24 53.3021 134.406 53.2188C134.573 53.1354 134.698 53.125 134.781 53.1875C134.885 53.25 134.938 53.3958 134.938 53.625C134.938 53.8333 134.854 54.1042 134.688 54.4375C134.542 54.7292 134.312 55.1146 134 55.5938C133.708 56.0729 133.354 56.5833 132.938 57.125C132.521 57.6667 132.073 58.2188 131.594 58.7812C131.115 59.3229 130.615 59.8229 130.094 60.2812C129.573 60.7188 129.052 61.0729 128.531 61.3438C128.031 61.6354 127.552 61.7812 127.094 61.7812ZM139.469 42.5938C139.406 42.8229 139.281 43.0521 139.094 43.2812C138.927 43.4896 138.729 43.6667 138.5 43.8125C138.292 43.9375 138.073 44.0208 137.844 44.0625C137.615 44.1042 137.427 44.0625 137.281 43.9375C136.844 43.6042 136.615 43.25 136.594 42.875C136.573 42.4792 136.667 42.1146 136.875 41.7812C137.083 41.4271 137.344 41.1354 137.656 40.9062C137.969 40.6562 138.24 40.5104 138.469 40.4688C138.698 40.4271 138.885 40.4792 139.031 40.625C139.198 40.75 139.323 40.9271 139.406 41.1562C139.49 41.3646 139.531 41.6042 139.531 41.875C139.552 42.1458 139.531 42.3854 139.469 42.5938ZM135.156 49.25C135.26 49.125 135.458 49.0208 135.75 48.9375C136.042 48.8542 136.344 48.7917 136.656 48.75C136.969 48.6875 137.25 48.6562 137.5 48.6562C137.771 48.6354 137.927 48.6354 137.969 48.6562C137.99 48.6771 137.938 48.8958 137.812 49.3125C137.688 49.7292 137.531 50.2188 137.344 50.7812C137.156 51.3438 136.958 51.9271 136.75 52.5312C136.542 53.1146 136.385 53.5938 136.281 53.9688C136.177 54.3438 136.052 54.7708 135.906 55.25C135.76 55.7083 135.625 56.1667 135.5 56.625C135.396 57.0625 135.323 57.4792 135.281 57.875C135.24 58.2708 135.271 58.5729 135.375 58.7812C135.479 59.0312 135.594 59.2083 135.719 59.3125C135.844 59.3958 135.979 59.4375 136.125 59.4375C136.542 59.4375 137.062 59.2083 137.688 58.75C138.333 58.2917 138.979 57.75 139.625 57.125C140.292 56.4792 140.906 55.8333 141.469 55.1875C142.031 54.5208 142.448 53.9896 142.719 53.5938C142.885 53.3854 143.052 53.25 143.219 53.1875C143.406 53.125 143.552 53.1354 143.656 53.2188C143.781 53.3021 143.844 53.4375 143.844 53.625C143.865 53.8125 143.802 54.0312 143.656 54.2812C143.323 54.8646 142.833 55.5625 142.188 56.375C141.542 57.1667 140.854 57.9375 140.125 58.6875C139.396 59.4167 138.677 60.0417 137.969 60.5625C137.281 61.0833 136.719 61.3542 136.281 61.375C135.927 61.3958 135.573 61.3333 135.219 61.1875C134.885 61.0625 134.573 60.8854 134.281 60.6562C134.01 60.4062 133.781 60.125 133.594 59.8125C133.406 59.4792 133.302 59.1354 133.281 58.7812C133.219 58.2604 133.219 57.5521 133.281 56.6562C133.344 55.7396 133.458 54.8125 133.625 53.875C133.792 52.9167 134 52.0104 134.25 51.1562C134.521 50.3021 134.823 49.6667 135.156 49.25ZM146.688 59.9375C147.333 59.9375 148.042 59.6875 148.812 59.1875C149.604 58.6667 150.365 58.0625 151.094 57.375C151.844 56.6875 152.521 55.9896 153.125 55.2812C153.75 54.5521 154.219 53.9688 154.531 53.5312C154.719 53.2604 154.896 53.1042 155.062 53.0625C155.229 53 155.354 53.0208 155.438 53.125C155.521 53.2292 155.552 53.3958 155.531 53.625C155.51 53.8333 155.417 54.0729 155.25 54.3438C155.104 54.5938 154.854 54.9583 154.5 55.4375C154.167 55.8958 153.76 56.4062 153.281 56.9688C152.823 57.5104 152.292 58.0729 151.688 58.6562C151.104 59.2188 150.49 59.7396 149.844 60.2188C149.198 60.6771 148.531 61.0521 147.844 61.3438C147.156 61.6562 146.479 61.8125 145.812 61.8125C144.896 61.8125 144.125 61.6354 143.5 61.2812C142.896 60.9479 142.406 60.5104 142.031 59.9688C141.677 59.4271 141.427 58.8333 141.281 58.1875C141.135 57.5208 141.062 56.8646 141.062 56.2188C141.062 55.5729 141.208 54.7708 141.5 53.8125C141.792 52.8542 142.219 51.9375 142.781 51.0625C143.365 50.1667 144.094 49.4062 144.969 48.7812C145.844 48.1354 146.875 47.8125 148.062 47.8125C148.729 47.8125 149.292 48.0417 149.75 48.5C150.229 48.9583 150.458 49.5833 150.438 50.375C150.438 50.75 150.375 51.125 150.25 51.5C150.125 51.8542 149.958 52.1771 149.75 52.4688C149.542 52.7396 149.292 52.9583 149 53.125C148.729 53.2917 148.427 53.375 148.094 53.375C147.823 53.375 147.615 53.2812 147.469 53.0938C147.344 52.8854 147.26 52.6562 147.219 52.4062C147.198 52.1354 147.198 51.875 147.219 51.625C147.26 51.375 147.302 51.2083 147.344 51.125C147.448 50.9792 147.562 50.875 147.688 50.8125C147.812 50.75 147.958 50.6771 148.125 50.5938C148.25 50.5312 148.344 50.4375 148.406 50.3125C148.49 50.1875 148.531 50.0521 148.531 49.9062C148.531 49.7604 148.49 49.6354 148.406 49.5312C148.323 49.4271 148.188 49.375 148 49.375C147.812 49.375 147.469 49.5312 146.969 49.8438C146.49 50.1354 145.99 50.5833 145.469 51.1875C144.969 51.7708 144.521 52.5104 144.125 53.4062C143.729 54.3021 143.521 55.3438 143.5 56.5312C143.479 57.2188 143.573 57.7812 143.781 58.2188C143.99 58.6562 144.25 59 144.562 59.25C144.875 59.5 145.219 59.6771 145.594 59.7812C145.969 59.8854 146.333 59.9375 146.688 59.9375Z" fill="black"/>
</g>
<defs>
<filter id="filter0_d_127_178" x="54.1875" y="37.0938" width="105.375" height="47.5625" filterUnits="userSpaceOnUse" color-interpolation-filters="sRGB">
<feFlood flood-opacity="0" result="BackgroundImageFix"/>
<feColorMatrix in="SourceAlpha" type="matrix" values="0 0 0 0 0 0 0 0 0 0 0 0 0 0 0 0 0 0 127 0" result="hardAlpha"/>
<feOffset dy="4"/>
<feGaussianBlur stdDeviation="2"/>
<feComposite in2="hardAlpha" operator="out"/>
<feColorMatrix type="matrix" values="0 0 0 0 0 0 0 0 0 0 0 0 0 0 0 0 0 0 0.25 0"/>
<feBlend mode="normal" in2="BackgroundImageFix" result="effect1_dropShadow_127_178"/>
<feBlend mode="normal" in="SourceGraphic" in2="effect1_dropShadow_127_178" result="shape"/>
</filter>
<radialGradient id="paint0_radial_127_178" cx="0" cy="0" r="1" gradientUnits="userSpaceOnUse" gradientTransform="translate(30.5 25) rotate(66.1048) scale(43.203)">
<stop stop-color="#E9A552"/>
<stop offset="1" stop-color="#DAE952" stop-opacity="0"/>
</radialGradient>
<radialGradient id="paint1_radial_127_178" cx="0" cy="0" r="1" gradientUnits="userSpaceOnUse" gradientTransform="translate(15 5) rotate(66.1048) scale(43.203)">
<stop stop-color="#DAE952"/>
<stop offset="1" stop-color="#DAE952" stop-opacity="0"/>
</radialGradient>
<radialGradient id="paint2_radial_127_178" cx="0" cy="0" r="1" gradientUnits="userSpaceOnUse" gradientTransform="translate(0 34.5) scale(39.5)">
<stop stop-color="#DAE952"/>
<stop offset="1" stop-color="#DAE952" stop-opacity="0"/>
</radialGradient>
</defs>
</svg>
