<svg width="200" height="100" viewBox="0 0 181 89" fill="none" xmlns="http://www.w3.org/2000/svg">
<path fill-rule="evenodd" clip-rule="evenodd" d="M0 53.75C0 67.5571 11.1929 78.75 25 78.75C38.8071 78.75 50 67.5571 50 53.75H0Z" fill="#E9AF52"/>
<circle cx="12.5" cy="49.75" r="11" stroke="url(#paint0_radial_113_167)" stroke-width="3"/>
<circle cx="32.5" cy="29.75" r="6.5" stroke="url(#paint1_radial_113_167)" stroke-width="2"/>
<circle cx="20" cy="17.75" r="6.5" stroke="url(#paint2_radial_113_167)" stroke-width="2"/>
<path d="M66.0464 41.0854C66.0464 40.1587 66.1289 39.1812 66.2939 38.1528C66.459 37.1118 66.7129 36.0898 67.0557 35.0869C67.4111 34.084 67.8491 33.1255 68.3696 32.2114C68.9028 31.2974 69.5312 30.4976 70.2549 29.812C70.9785 29.1138 71.7974 28.5615 72.7114 28.1553C73.6382 27.7363 74.6665 27.5269 75.7964 27.5269C76.9517 27.5269 78.0054 27.7236 78.9575 28.1172C79.9097 28.498 80.7603 29.0376 81.5093 29.7358C82.2583 30.4214 82.9121 31.2402 83.4707 32.1924C84.042 33.1445 84.5117 34.1855 84.8799 35.3154C85.248 36.4453 85.521 37.645 85.6987 38.9146C85.8892 40.1714 85.9844 41.4536 85.9844 42.7612C85.9844 44.2085 85.8638 45.6494 85.6226 47.084C85.394 48.5186 85.0449 49.896 84.5752 51.2163C84.1182 52.5239 83.5405 53.7427 82.8423 54.8726C82.144 56.0024 81.3315 56.98 80.4048 57.8052C79.478 58.6304 78.4307 59.2778 77.2627 59.7476C76.1074 60.23 74.8379 60.4712 73.4541 60.4712C72.1592 60.4712 70.9468 60.2681 69.8169 59.8618C68.687 59.4683 67.6523 58.9097 66.7129 58.186C65.7734 57.4497 64.9355 56.5801 64.1992 55.5771C63.4629 54.5615 62.8408 53.4507 62.333 52.2446C61.8379 51.0259 61.457 49.731 61.1904 48.3599C60.9238 46.9761 60.7905 45.5542 60.7905 44.0942C60.7905 42.6597 60.9175 41.3267 61.1714 40.0952C61.438 38.8638 61.7871 37.7275 62.2188 36.6865C62.6504 35.6455 63.1392 34.6997 63.6851 33.8491C64.2437 32.9985 64.8213 32.2368 65.418 31.564C66.0146 30.8911 66.605 30.3071 67.189 29.812C67.7729 29.3169 68.3125 28.9043 68.8076 28.5742L69.6265 29.1265C68.7505 29.8374 67.957 30.7134 67.2461 31.7544C66.5479 32.7954 65.9448 33.9634 65.437 35.2583C64.9419 36.5532 64.561 37.9497 64.2944 39.4478C64.0278 40.9331 63.8945 42.4819 63.8945 44.0942C63.8945 46.8237 64.1611 49.1597 64.6943 51.1021C65.2402 53.0444 65.9575 54.6377 66.8462 55.8818C67.7349 57.126 68.7505 58.04 69.8931 58.624C71.0483 59.208 72.2354 59.5 73.4541 59.5C74.7744 59.5 75.9995 59.208 77.1294 58.624C78.2593 58.04 79.2368 57.126 80.062 55.8818C80.8999 54.6377 81.5537 53.0444 82.0234 51.1021C82.5059 49.1597 82.7471 46.8237 82.7471 44.0942C82.7471 41.479 82.5439 39.2065 82.1377 37.2769C81.7441 35.3472 81.1982 33.7539 80.5 32.4971C79.8145 31.2275 79.0083 30.2817 78.0815 29.6597C77.1548 29.0376 76.1709 28.7266 75.1299 28.7266C74.3174 28.7266 73.5874 28.9106 72.9399 29.2788C72.2925 29.647 71.7212 30.1548 71.2261 30.8022C70.7437 31.437 70.3247 32.186 69.9692 33.0493C69.6138 33.8999 69.3218 34.814 69.0933 35.7915C68.8774 36.769 68.7188 37.7783 68.6172 38.8193C68.5156 39.8477 68.4648 40.8633 68.4648 41.8662C68.4648 43.0596 68.5029 44.0688 68.5791 44.894C68.6553 45.7065 68.7441 46.3667 68.8457 46.8745C68.96 47.4712 69.0933 47.9473 69.2456 48.3027L68.1221 48.5884C67.9443 48.3853 67.7349 48.0996 67.4937 47.7314C67.2651 47.3633 67.043 46.8809 66.8271 46.2842C66.6113 45.6875 66.4272 44.9639 66.2749 44.1133C66.1226 43.2627 66.0464 42.2534 66.0464 41.0854ZM88.0791 51.3115L88.2695 50.9116C88.46 50.5308 88.6313 50.1372 88.7837 49.731C88.9487 49.3247 89.0884 48.9438 89.2026 48.5884C89.3169 48.2202 89.4058 47.8965 89.4692 47.6172C89.5327 47.3252 89.5771 47.103 89.6025 46.9507C89.2725 46.9126 88.9551 46.8301 88.6504 46.7031C88.3457 46.5762 88.0791 46.4048 87.8506 46.189C87.6221 45.9731 87.4443 45.7192 87.3174 45.4272C87.1777 45.1353 87.1079 44.8052 87.1079 44.437C87.1079 44.145 87.1587 43.8848 87.2603 43.6562C87.3618 43.4277 87.5015 43.2373 87.6792 43.085C87.8442 42.9326 88.0347 42.8184 88.2505 42.7422C88.4536 42.6533 88.6694 42.6089 88.8979 42.6089C89.2026 42.6089 89.4692 42.6724 89.6978 42.7993C89.9263 42.9263 90.1167 43.0977 90.269 43.3135C90.4214 43.5166 90.5356 43.7578 90.6118 44.0371C90.688 44.3037 90.7261 44.583 90.7261 44.875C91.0815 44.875 91.4624 44.8242 91.8687 44.7227C92.2876 44.6211 92.7065 44.5132 93.1255 44.3989C93.5444 44.272 93.957 44.1577 94.3633 44.0562C94.7695 43.9546 95.144 43.9038 95.4868 43.9038C95.7788 43.9038 96.0137 43.9673 96.1914 44.0942C96.3691 44.2085 96.458 44.4053 96.458 44.6846C96.458 44.8877 96.3945 45.2241 96.2676 45.6938C96.1533 46.1636 96.0073 46.7095 95.8296 47.3315C95.6519 47.9536 95.4551 48.6328 95.2393 49.3691C95.0361 50.0928 94.8457 50.8291 94.668 51.5781C94.4902 52.3145 94.3379 53.0317 94.2109 53.73C94.0967 54.4282 94.0396 55.0503 94.0396 55.5962C94.0396 56.2817 94.1157 56.7451 94.2681 56.9863C94.4204 57.2275 94.6934 57.3481 95.0869 57.3481C95.252 57.3481 95.4551 57.2783 95.6963 57.1387C95.9502 56.9863 96.2549 56.7007 96.6104 56.2817C96.9658 55.8501 97.3848 55.2407 97.8672 54.4536C98.3623 53.6538 98.9336 52.6064 99.5811 51.3115L99.7715 50.9116L100.552 51.502L100.362 51.9019C99.6001 53.4253 98.9209 54.6758 98.3242 55.6533C97.7275 56.6309 97.1753 57.4053 96.6675 57.9766C96.1724 58.5479 95.7026 58.9478 95.2583 59.1763C94.814 59.3921 94.3696 59.5 93.9253 59.5C93.1763 59.5 92.5669 59.2144 92.0972 58.6431C91.6274 58.0718 91.3926 57.1895 91.3926 55.9961C91.3926 55.3486 91.4814 54.6758 91.6592 53.9775C91.8369 53.2793 92.0591 52.5874 92.3257 51.9019C92.5923 51.2036 92.8906 50.5181 93.2207 49.8452C93.5508 49.1724 93.8618 48.5376 94.1538 47.9409C94.4585 47.3315 94.7314 46.7666 94.9727 46.2461C95.2139 45.7256 95.3853 45.2686 95.4868 44.875L95.3726 44.7607C95.1694 44.7607 94.8965 44.8687 94.5537 45.0845C94.2109 45.3003 93.8237 45.5479 93.3921 45.8271C92.9731 46.0938 92.5225 46.3477 92.04 46.5889C91.5576 46.8301 91.0688 46.9761 90.5737 47.0269C90.5483 47.2046 90.4912 47.4648 90.4023 47.8076C90.3262 48.1504 90.2183 48.5312 90.0786 48.9502C89.939 49.3691 89.7803 49.8008 89.6025 50.2451C89.4248 50.6895 89.2407 51.1084 89.0503 51.502L88.8599 51.9019L88.0791 51.3115ZM89.0122 43.6753C88.8979 43.6753 88.8027 43.7134 88.7266 43.7896C88.6504 43.8657 88.6123 43.9546 88.6123 44.0562C88.6123 44.2085 88.6504 44.3418 88.7266 44.4561C88.8027 44.5576 88.8979 44.6465 89.0122 44.7227C89.1265 44.7861 89.2407 44.8369 89.355 44.875C89.4819 44.9004 89.5898 44.9131 89.6787 44.9131C89.6787 44.5576 89.6216 44.2656 89.5073 44.0371C89.3931 43.7959 89.228 43.6753 89.0122 43.6753ZM105.084 66.7173C105.084 66.1587 105.186 65.5938 105.389 65.0225C105.605 64.4512 105.897 63.8672 106.265 63.2705C106.633 62.6738 107.059 62.0518 107.541 61.4043C108.036 60.7695 108.569 60.1094 109.141 59.4238V55.8247C108.836 56.4214 108.493 56.9482 108.112 57.4053C107.731 57.8623 107.325 58.2495 106.894 58.5669C106.475 58.8716 106.037 59.1064 105.58 59.2715C105.135 59.4238 104.697 59.5 104.266 59.5C103.669 59.5 103.091 59.354 102.533 59.062C101.987 58.77 101.498 58.332 101.066 57.748C100.635 57.1514 100.292 56.4023 100.038 55.501C99.7842 54.5996 99.6572 53.5396 99.6572 52.3208C99.6572 51.2925 99.7778 50.2769 100.019 49.2739C100.26 48.271 100.622 47.376 101.104 46.5889C101.587 45.7891 102.184 45.1416 102.895 44.6465C103.605 44.1514 104.437 43.9038 105.389 43.9038C106.138 43.9038 106.836 44.0562 107.484 44.3608C108.144 44.6655 108.696 45.1099 109.141 45.6938V45.4653C109.141 45.2241 109.21 45.0083 109.35 44.8179C109.502 44.6147 109.687 44.4497 109.902 44.3228C110.131 44.1831 110.366 44.0815 110.607 44.0181C110.861 43.9419 111.083 43.9038 111.273 43.9038C111.489 43.9038 111.642 43.9355 111.73 43.999C111.819 44.0498 111.864 44.145 111.864 44.2847C111.864 44.4878 111.838 44.9448 111.788 45.6558C111.737 46.3667 111.711 47.4077 111.711 48.7788V57.0435C112.029 56.6499 112.365 56.2119 112.721 55.7295C113.076 55.2471 113.432 54.7456 113.787 54.2251C114.143 53.6919 114.485 53.146 114.815 52.5874C115.158 52.0288 115.476 51.4702 115.768 50.9116L115.958 50.5308L116.739 51.1211L116.548 51.502C116.244 52.1113 115.888 52.7461 115.482 53.4062C115.088 54.0537 114.669 54.6948 114.225 55.3296C113.793 55.9517 113.355 56.5547 112.911 57.1387C112.479 57.71 112.08 58.2241 111.711 58.6812V62.8135C111.711 63.9814 111.604 64.9717 111.388 65.7842C111.185 66.6094 110.899 67.2759 110.531 67.7837C110.175 68.3042 109.744 68.6787 109.236 68.9072C108.741 69.1357 108.201 69.25 107.617 69.25C106.894 69.25 106.291 69.0215 105.808 68.5645C105.326 68.1201 105.084 67.5044 105.084 66.7173ZM105.427 57.5576C105.821 57.5576 106.208 57.4434 106.589 57.2148C106.982 56.9863 107.344 56.6943 107.674 56.3389C108.004 55.9834 108.296 55.5962 108.55 55.1772C108.817 54.7456 109.014 54.3267 109.141 53.9204V48.5503C109.141 47.979 109.052 47.4648 108.874 47.0078C108.696 46.5381 108.461 46.1445 108.169 45.8271C107.877 45.4971 107.541 45.2432 107.16 45.0654C106.792 44.8877 106.411 44.7988 106.018 44.7988C105.408 44.7988 104.875 44.9829 104.418 45.3511C103.961 45.7065 103.58 46.1826 103.275 46.7793C102.971 47.3633 102.742 48.0361 102.59 48.7979C102.45 49.5596 102.38 50.334 102.38 51.1211C102.38 52.0986 102.438 52.981 102.552 53.7681C102.679 54.5552 102.869 55.2344 103.123 55.8057C103.377 56.3643 103.694 56.7959 104.075 57.1006C104.456 57.4053 104.907 57.5576 105.427 57.5576ZM107.408 68.0884C107.611 68.0884 107.814 68.0439 108.017 67.9551C108.233 67.8789 108.423 67.6948 108.588 67.4028C108.753 67.1108 108.887 66.6792 108.988 66.1079C109.09 65.5366 109.141 64.7622 109.141 63.7847V60.9473C108.265 62.001 107.547 62.9976 106.989 63.937C106.443 64.8892 106.17 65.7778 106.17 66.603C106.17 66.9966 106.278 67.3394 106.494 67.6313C106.709 67.936 107.014 68.0884 107.408 68.0884ZM127.498 54.7773C127.498 55.501 127.562 56.1104 127.688 56.6055C127.815 57.1006 128.038 57.3481 128.355 57.3481C128.545 57.3481 128.749 57.2593 128.964 57.0815C129.193 56.8911 129.453 56.5864 129.745 56.1675C130.037 55.7485 130.367 55.209 130.735 54.5488C131.116 53.876 131.548 53.0571 132.03 52.0923L132.602 50.9116L133.382 51.502L132.811 52.6826C132.278 53.749 131.776 54.7075 131.307 55.5581C130.85 56.396 130.412 57.1069 129.993 57.6909C129.574 58.2749 129.161 58.7256 128.755 59.043C128.361 59.3477 127.968 59.5 127.574 59.5C127.155 59.5 126.8 59.3857 126.508 59.1572C126.229 58.9287 125.994 58.6177 125.803 58.2241C125.613 57.8179 125.467 57.3545 125.365 56.834C125.264 56.3008 125.194 55.7358 125.156 55.1392C124.851 55.7485 124.515 56.3198 124.146 56.853C123.778 57.3735 123.391 57.8306 122.985 58.2241C122.591 58.6177 122.179 58.9287 121.747 59.1572C121.315 59.3857 120.884 59.5 120.452 59.5C119.817 59.5 119.202 59.3667 118.605 59.1001C118.008 58.8335 117.475 58.4272 117.005 57.8813C116.548 57.3354 116.18 56.6499 115.901 55.8247C115.622 54.9868 115.482 54.0029 115.482 52.873C115.482 51.5527 115.653 50.3467 115.996 49.2549C116.339 48.1504 116.802 47.2046 117.386 46.4175C117.97 45.6177 118.643 45.002 119.405 44.5703C120.167 44.126 120.966 43.9038 121.804 43.9038C122.312 43.9038 122.782 44.0181 123.213 44.2466C123.645 44.4751 124.02 44.7544 124.337 45.0845C124.667 45.4019 124.94 45.7446 125.156 46.1128C125.372 46.4683 125.518 46.7729 125.594 47.0269L125.822 45.1797C125.848 44.9385 125.962 44.7354 126.165 44.5703C126.381 44.4053 126.616 44.2783 126.87 44.1895C127.124 44.0879 127.371 44.0181 127.612 43.98C127.854 43.9292 128.025 43.9038 128.126 43.9038C128.279 43.9038 128.38 43.9292 128.431 43.98C128.482 44.0308 128.507 44.1323 128.507 44.2847C128.507 44.4751 128.45 44.8623 128.336 45.4463C128.234 46.0176 128.12 46.7539 127.993 47.6553C127.879 48.5439 127.765 49.5913 127.65 50.7974C127.549 52.0034 127.498 53.3301 127.498 54.7773ZM125.403 49.75C125.403 49.166 125.314 48.5947 125.137 48.0361C124.959 47.4648 124.718 46.9634 124.413 46.5317C124.108 46.0874 123.753 45.7319 123.347 45.4653C122.953 45.1987 122.534 45.0654 122.09 45.0654C121.544 45.0654 121.03 45.2241 120.547 45.5415C120.078 45.8462 119.665 46.2842 119.31 46.8555C118.967 47.4141 118.694 48.0933 118.491 48.8931C118.288 49.6802 118.186 50.5498 118.186 51.502C118.186 53.4062 118.484 54.8599 119.081 55.8628C119.678 56.853 120.471 57.3481 121.461 57.3481C121.893 57.3481 122.337 57.1768 122.794 56.834C123.264 56.4785 123.689 55.9771 124.07 55.3296C124.464 54.6694 124.781 53.8696 125.022 52.9302C125.276 51.9907 125.403 50.9307 125.403 49.75ZM139.933 45.2178C139.578 45.2178 139.178 45.3765 138.733 45.6938C138.302 46.0112 137.864 46.4238 137.419 46.9316C136.975 47.4268 136.543 47.9854 136.125 48.6074C135.718 49.2295 135.363 49.8452 135.058 50.4546C135.02 51.5718 134.982 52.7905 134.944 54.1108C134.918 55.4312 134.906 56.8403 134.906 58.3384C134.906 58.5288 134.817 58.7002 134.639 58.8525C134.474 58.9922 134.277 59.1128 134.049 59.2144C133.82 59.3032 133.585 59.373 133.344 59.4238C133.103 59.4746 132.906 59.5 132.754 59.5C132.563 59.5 132.386 59.4429 132.221 59.3286C132.056 59.2144 131.973 58.9604 131.973 58.5669C131.973 58.3765 131.992 58.1416 132.03 57.8623C132.068 57.5703 132.119 57.2593 132.183 56.9292C132.233 56.5991 132.297 56.2627 132.373 55.9199C132.437 55.5645 132.5 55.2344 132.563 54.9297V45.6177C132.563 45.3638 132.57 45.167 132.583 45.0273C132.583 44.875 132.602 44.7607 132.64 44.6846C132.716 44.5068 132.849 44.3672 133.04 44.2656C133.23 44.1641 133.433 44.0879 133.649 44.0371C133.865 43.9736 134.074 43.9355 134.277 43.9229C134.48 43.9102 134.639 43.9038 134.753 43.9038C134.969 43.9038 135.115 43.9609 135.191 44.0752C135.28 44.1895 135.325 44.3926 135.325 44.6846C135.325 44.6465 135.293 44.9575 135.229 45.6177C135.179 46.2778 135.134 47.2236 135.096 48.4551C135.477 47.8584 135.89 47.2871 136.334 46.7412C136.778 46.1953 137.242 45.7129 137.724 45.2939C138.207 44.875 138.702 44.5386 139.209 44.2847C139.73 44.0308 140.257 43.9038 140.79 43.9038C141.742 43.9038 142.44 44.2085 142.885 44.8179C143.329 45.4146 143.551 46.2271 143.551 47.2554C143.551 47.9028 143.507 48.6265 143.418 49.4263C143.342 50.2134 143.247 51.0195 143.132 51.8447C143.031 52.6572 142.936 53.457 142.847 54.2441C142.771 55.0186 142.732 55.7295 142.732 56.377C142.732 57.2148 142.993 57.6338 143.513 57.6338C143.678 57.6338 143.869 57.5513 144.084 57.3862C144.313 57.2085 144.592 56.8848 144.922 56.415C145.265 55.9453 145.671 55.3042 146.141 54.4917C146.611 53.6665 147.169 52.6064 147.817 51.3115L148.007 50.9116L148.788 51.502L148.598 51.9019C147.836 53.4253 147.157 54.6758 146.56 55.6533C145.976 56.6309 145.443 57.4053 144.96 57.9766C144.478 58.5479 144.027 58.9478 143.608 59.1763C143.189 59.3921 142.771 59.5 142.352 59.5C142.085 59.5 141.818 59.4619 141.552 59.3857C141.285 59.3096 141.05 59.1763 140.847 58.9858C140.644 58.7954 140.479 58.5415 140.352 58.2241C140.225 57.894 140.162 57.4751 140.162 56.9673C140.162 56.2056 140.212 55.3486 140.314 54.3965C140.416 53.4443 140.53 52.4922 140.657 51.54C140.784 50.5879 140.898 49.6929 141 48.855C141.101 48.0044 141.152 47.3125 141.152 46.7793C141.152 46.3096 141.05 45.9351 140.847 45.6558C140.644 45.3638 140.339 45.2178 139.933 45.2178ZM148.998 51.1211L148.807 51.502L148.617 51.9019L147.836 51.3115L148.026 50.9116C148.344 50.2642 148.604 49.6167 148.807 48.9692C149.023 48.3091 149.194 47.6934 149.321 47.1221C149.461 46.5508 149.575 46.0493 149.664 45.6177C149.753 45.186 149.842 44.875 149.931 44.6846C150.007 44.5322 150.115 44.4116 150.254 44.3228C150.407 44.2212 150.559 44.1387 150.711 44.0752C150.876 44.0117 151.029 43.9673 151.168 43.9419C151.321 43.9165 151.429 43.9038 151.492 43.9038C151.771 43.9038 151.956 43.9609 152.044 44.0752C152.146 44.1895 152.197 44.3926 152.197 44.6846C152.197 44.8242 152.165 45.1733 152.102 45.7319C152.051 46.2778 151.987 46.9697 151.911 47.8076C151.848 48.6328 151.784 49.5659 151.721 50.6069C151.67 51.6353 151.645 52.7017 151.645 53.8062C151.645 54.606 151.683 55.2407 151.759 55.7104C151.835 56.1675 151.93 56.5103 152.044 56.7388C152.171 56.9673 152.305 57.1133 152.444 57.1768C152.597 57.2402 152.749 57.272 152.901 57.272C153.104 57.272 153.333 57.1831 153.587 57.0054C153.841 56.8276 154.139 56.5166 154.482 56.0723C154.825 55.6152 155.218 55.0059 155.663 54.2441C156.107 53.4697 156.627 52.4922 157.224 51.3115L157.434 50.9116L158.214 51.502L158.005 51.9019C157.522 52.8413 157.04 53.7681 156.558 54.6821C156.088 55.5962 155.605 56.4087 155.11 57.1196C154.628 57.8306 154.139 58.4082 153.644 58.8525C153.149 59.2842 152.654 59.5 152.159 59.5C151.638 59.5 151.188 59.3984 150.807 59.1953C150.438 58.9795 150.127 58.6304 149.874 58.1479C149.632 57.6655 149.448 57.0308 149.321 56.2437C149.207 55.4438 149.15 54.46 149.15 53.292C149.15 52.9619 149.15 52.6191 149.15 52.2637C149.15 51.8955 149.163 51.5146 149.188 51.1211H148.998ZM152.901 40C152.901 40.4443 152.749 40.8188 152.444 41.1235C152.152 41.4155 151.784 41.5615 151.34 41.5615C150.908 41.5615 150.54 41.4155 150.235 41.1235C149.931 40.8188 149.778 40.4443 149.778 40C149.778 39.5684 149.931 39.2002 150.235 38.8955C150.54 38.5908 150.908 38.4385 151.34 38.4385C151.784 38.4385 152.152 38.5908 152.444 38.8955C152.749 39.2002 152.901 39.5684 152.901 40ZM163.87 48.6265C164.022 48.3853 164.149 48.0869 164.251 47.7314C164.365 47.376 164.422 47.0205 164.422 46.665C164.422 46.2334 164.314 45.8589 164.099 45.5415C163.883 45.2241 163.496 45.0654 162.937 45.0654C162.569 45.0654 162.194 45.1987 161.813 45.4653C161.433 45.7319 161.077 46.1318 160.747 46.665C160.43 47.1982 160.169 47.8711 159.966 48.6836C159.763 49.4961 159.662 50.4482 159.662 51.54C159.662 52.4033 159.75 53.1904 159.928 53.9014C160.106 54.6123 160.366 55.2217 160.709 55.7295C161.052 56.2373 161.464 56.6372 161.947 56.9292C162.442 57.2085 162.994 57.3481 163.604 57.3481C164.048 57.3481 164.499 57.2339 164.956 57.0054C165.425 56.7769 165.895 56.4214 166.365 55.939C166.847 55.4565 167.342 54.8345 167.85 54.0728C168.358 53.2983 168.878 52.3779 169.412 51.3115L169.602 50.9116L170.383 51.502L170.192 51.9019C169.507 53.2603 168.821 54.4219 168.136 55.3867C167.463 56.3516 166.796 57.1387 166.136 57.748C165.476 58.3574 164.829 58.8018 164.194 59.0811C163.572 59.3604 162.969 59.5 162.385 59.5C161.56 59.5 160.823 59.3286 160.176 58.9858C159.528 58.6431 158.982 58.1797 158.538 57.5957C158.094 56.999 157.751 56.3135 157.51 55.5391C157.281 54.752 157.167 53.9268 157.167 53.0635C157.167 51.6924 157.351 50.4482 157.719 49.3311C158.1 48.2012 158.589 47.2363 159.186 46.4365C159.782 45.6367 160.455 45.0146 161.204 44.5703C161.953 44.126 162.708 43.9038 163.47 43.9038C164.054 43.9038 164.543 43.9863 164.937 44.1514C165.33 44.3164 165.647 44.5259 165.889 44.7798C166.13 45.0337 166.301 45.3066 166.403 45.5986C166.504 45.8906 166.555 46.1699 166.555 46.4365C166.555 46.7031 166.498 46.9824 166.384 47.2744C166.27 47.5537 166.098 47.8203 165.87 48.0742C165.654 48.3154 165.394 48.5376 165.089 48.7407C164.784 48.9312 164.441 49.0708 164.061 49.1597L163.87 48.6265Z" fill="url(#paint3_linear_113_167)"/>
<defs>
<radialGradient id="paint0_radial_113_167" cx="0" cy="0" r="1" gradientUnits="userSpaceOnUse" gradientTransform="translate(0 49.75) scale(39.5)">
<stop stop-color="#DAE952"/>
<stop offset="1" stop-color="#DAE952" stop-opacity="0"/>
</radialGradient>
<radialGradient id="paint1_radial_113_167" cx="0" cy="0" r="1" gradientUnits="userSpaceOnUse" gradientTransform="translate(27.5 19.25) rotate(66.1048) scale(43.203)">
<stop stop-color="#DAE952"/>
<stop offset="1" stop-color="#DAE952" stop-opacity="0"/>
</radialGradient>
<radialGradient id="paint2_radial_113_167" cx="0" cy="0" r="1" gradientUnits="userSpaceOnUse" gradientTransform="translate(15 7.25) rotate(66.1048) scale(43.203)">
<stop stop-color="#DAE952"/>
<stop offset="1" stop-color="#DAE952" stop-opacity="0"/>
</radialGradient>
<linearGradient id="paint3_linear_113_167" x1="68.5955" y1="69.871" x2="188.596" y2="69.871" gradientUnits="userSpaceOnUse">
<stop/>
<stop offset="1" stop-color="#FFECCD"/>
</linearGradient>
</defs>
</svg>
